<mxfile host="app.diagrams.net" modified="2023-09-11T11:02:24.925Z" agent="Mozilla/5.0 (Windows NT 10.0; Win64; x64) AppleWebKit/537.36 (KHTML, like Gecko) Chrome/116.0.0.0 Safari/537.36" etag="Ok-QXUaejBTACyTAD_v_" version="21.7.2" type="device">
  <diagram name="Page-1" id="R7RzA7ZbVAH9rotIqaAD">
    <mxGraphModel dx="1500" dy="809" grid="1" gridSize="10" guides="1" tooltips="1" connect="1" arrows="1" fold="1" page="1" pageScale="1" pageWidth="850" pageHeight="1100" math="0" shadow="0">
      <root>
        <mxCell id="0" />
        <mxCell id="1" parent="0" />
        <mxCell id="3Td5FhvJUQsPhn0Y62NO-6" style="edgeStyle=orthogonalEdgeStyle;rounded=0;orthogonalLoop=1;jettySize=auto;html=1;exitX=0.5;exitY=1;exitDx=0;exitDy=0;entryX=0.5;entryY=0;entryDx=0;entryDy=0;" parent="1" source="3Td5FhvJUQsPhn0Y62NO-1" target="3Td5FhvJUQsPhn0Y62NO-2" edge="1">
          <mxGeometry relative="1" as="geometry" />
        </mxCell>
        <mxCell id="3Td5FhvJUQsPhn0Y62NO-1" value="Start" style="rounded=1;whiteSpace=wrap;html=1;" parent="1" vertex="1">
          <mxGeometry x="210" y="70" width="120" height="60" as="geometry" />
        </mxCell>
        <mxCell id="3Td5FhvJUQsPhn0Y62NO-7" style="edgeStyle=orthogonalEdgeStyle;rounded=0;orthogonalLoop=1;jettySize=auto;html=1;exitX=0.5;exitY=1;exitDx=0;exitDy=0;entryX=0.5;entryY=0;entryDx=0;entryDy=0;" parent="1" source="3Td5FhvJUQsPhn0Y62NO-2" target="3Td5FhvJUQsPhn0Y62NO-3" edge="1">
          <mxGeometry relative="1" as="geometry" />
        </mxCell>
        <mxCell id="3Td5FhvJUQsPhn0Y62NO-2" value="input N" style="shape=parallelogram;perimeter=parallelogramPerimeter;whiteSpace=wrap;html=1;fixedSize=1;" parent="1" vertex="1">
          <mxGeometry x="210" y="190" width="120" height="60" as="geometry" />
        </mxCell>
        <mxCell id="3Td5FhvJUQsPhn0Y62NO-8" value="true" style="edgeStyle=orthogonalEdgeStyle;rounded=0;orthogonalLoop=1;jettySize=auto;html=1;exitX=0.5;exitY=1;exitDx=0;exitDy=0;entryX=0.5;entryY=0;entryDx=0;entryDy=0;" parent="1" source="3Td5FhvJUQsPhn0Y62NO-3" target="3Td5FhvJUQsPhn0Y62NO-4" edge="1">
          <mxGeometry relative="1" as="geometry" />
        </mxCell>
        <mxCell id="3Td5FhvJUQsPhn0Y62NO-19" value="false" style="edgeStyle=orthogonalEdgeStyle;rounded=0;orthogonalLoop=1;jettySize=auto;html=1;exitX=1;exitY=0.5;exitDx=0;exitDy=0;" parent="1" source="3Td5FhvJUQsPhn0Y62NO-3" target="3Td5FhvJUQsPhn0Y62NO-12" edge="1">
          <mxGeometry relative="1" as="geometry">
            <mxPoint x="380" y="365" as="targetPoint" />
          </mxGeometry>
        </mxCell>
        <mxCell id="3Td5FhvJUQsPhn0Y62NO-3" value="N &amp;lt; 9" style="rhombus;whiteSpace=wrap;html=1;" parent="1" vertex="1">
          <mxGeometry x="210" y="300" width="120" height="130" as="geometry" />
        </mxCell>
        <mxCell id="3Td5FhvJUQsPhn0Y62NO-25" style="edgeStyle=orthogonalEdgeStyle;rounded=0;orthogonalLoop=1;jettySize=auto;html=1;exitX=0.5;exitY=1;exitDx=0;exitDy=0;entryX=0.5;entryY=0;entryDx=0;entryDy=0;" parent="1" source="3Td5FhvJUQsPhn0Y62NO-4" target="3Td5FhvJUQsPhn0Y62NO-5" edge="1">
          <mxGeometry relative="1" as="geometry" />
        </mxCell>
        <mxCell id="3Td5FhvJUQsPhn0Y62NO-4" value="output N+1" style="shape=parallelogram;perimeter=parallelogramPerimeter;whiteSpace=wrap;html=1;fixedSize=1;" parent="1" vertex="1">
          <mxGeometry x="210" y="480" width="120" height="60" as="geometry" />
        </mxCell>
        <mxCell id="3Td5FhvJUQsPhn0Y62NO-24" style="edgeStyle=orthogonalEdgeStyle;rounded=0;orthogonalLoop=1;jettySize=auto;html=1;exitX=1;exitY=0.5;exitDx=0;exitDy=0;entryX=0.024;entryY=0.522;entryDx=0;entryDy=0;entryPerimeter=0;" parent="1" source="3Td5FhvJUQsPhn0Y62NO-5" target="3Td5FhvJUQsPhn0Y62NO-16" edge="1">
          <mxGeometry relative="1" as="geometry" />
        </mxCell>
        <mxCell id="3Td5FhvJUQsPhn0Y62NO-5" value="output &quot;I WIN&quot;" style="shape=parallelogram;perimeter=parallelogramPerimeter;whiteSpace=wrap;html=1;fixedSize=1;" parent="1" vertex="1">
          <mxGeometry x="210" y="600" width="120" height="60" as="geometry" />
        </mxCell>
        <mxCell id="3Td5FhvJUQsPhn0Y62NO-9" value="end" style="rounded=1;whiteSpace=wrap;html=1;" parent="1" vertex="1">
          <mxGeometry x="930" y="600" width="120" height="60" as="geometry" />
        </mxCell>
        <mxCell id="3Td5FhvJUQsPhn0Y62NO-21" style="edgeStyle=orthogonalEdgeStyle;rounded=0;orthogonalLoop=1;jettySize=auto;html=1;exitX=0;exitY=0.75;exitDx=0;exitDy=0;entryX=0.931;entryY=0.611;entryDx=0;entryDy=0;entryPerimeter=0;" parent="1" source="3Td5FhvJUQsPhn0Y62NO-12" target="3Td5FhvJUQsPhn0Y62NO-2" edge="1">
          <mxGeometry relative="1" as="geometry" />
        </mxCell>
        <mxCell id="3Td5FhvJUQsPhn0Y62NO-12" value="output &quot;Please enter a number lower than 9" style="shape=parallelogram;perimeter=parallelogramPerimeter;whiteSpace=wrap;html=1;fixedSize=1;" parent="1" vertex="1">
          <mxGeometry x="380" y="170" width="210" height="100" as="geometry" />
        </mxCell>
        <mxCell id="3Td5FhvJUQsPhn0Y62NO-18" value="true" style="edgeStyle=orthogonalEdgeStyle;rounded=0;orthogonalLoop=1;jettySize=auto;html=1;exitX=0.5;exitY=0;exitDx=0;exitDy=0;entryX=1;entryY=0.25;entryDx=0;entryDy=0;" parent="1" source="3Td5FhvJUQsPhn0Y62NO-14" target="3Td5FhvJUQsPhn0Y62NO-2" edge="1">
          <mxGeometry relative="1" as="geometry">
            <Array as="points">
              <mxPoint x="800" y="30" />
              <mxPoint x="360" y="30" />
              <mxPoint x="360" y="206" />
            </Array>
          </mxGeometry>
        </mxCell>
        <mxCell id="1F3DMs_ma2taLGjU55Q1-1" value="false" style="edgeStyle=orthogonalEdgeStyle;rounded=0;orthogonalLoop=1;jettySize=auto;html=1;exitX=1;exitY=0.5;exitDx=0;exitDy=0;entryX=0;entryY=0.5;entryDx=0;entryDy=0;" edge="1" parent="1" source="3Td5FhvJUQsPhn0Y62NO-14" target="3Td5FhvJUQsPhn0Y62NO-9">
          <mxGeometry relative="1" as="geometry" />
        </mxCell>
        <mxCell id="3Td5FhvJUQsPhn0Y62NO-14" value="choice == J" style="rhombus;whiteSpace=wrap;html=1;" parent="1" vertex="1">
          <mxGeometry x="740" y="565" width="120" height="130" as="geometry" />
        </mxCell>
        <mxCell id="3Td5FhvJUQsPhn0Y62NO-23" style="edgeStyle=orthogonalEdgeStyle;rounded=0;orthogonalLoop=1;jettySize=auto;html=1;exitX=1;exitY=0.5;exitDx=0;exitDy=0;entryX=0;entryY=0.5;entryDx=0;entryDy=0;" parent="1" source="3Td5FhvJUQsPhn0Y62NO-16" target="3Td5FhvJUQsPhn0Y62NO-17" edge="1">
          <mxGeometry relative="1" as="geometry" />
        </mxCell>
        <mxCell id="3Td5FhvJUQsPhn0Y62NO-16" value="output &quot;Do you want to play again?&quot;" style="shape=parallelogram;perimeter=parallelogramPerimeter;whiteSpace=wrap;html=1;fixedSize=1;" parent="1" vertex="1">
          <mxGeometry x="370" y="585" width="180" height="90" as="geometry" />
        </mxCell>
        <mxCell id="3Td5FhvJUQsPhn0Y62NO-22" style="edgeStyle=orthogonalEdgeStyle;rounded=0;orthogonalLoop=1;jettySize=auto;html=1;exitX=1;exitY=0.5;exitDx=0;exitDy=0;entryX=0;entryY=0.5;entryDx=0;entryDy=0;" parent="1" source="3Td5FhvJUQsPhn0Y62NO-17" target="3Td5FhvJUQsPhn0Y62NO-14" edge="1">
          <mxGeometry relative="1" as="geometry" />
        </mxCell>
        <mxCell id="3Td5FhvJUQsPhn0Y62NO-17" value="input choice" style="shape=parallelogram;perimeter=parallelogramPerimeter;whiteSpace=wrap;html=1;fixedSize=1;" parent="1" vertex="1">
          <mxGeometry x="580" y="600" width="120" height="60" as="geometry" />
        </mxCell>
      </root>
    </mxGraphModel>
  </diagram>
</mxfile>
